G04 #@! TF.FileFunction,Legend,Top*
%FSLAX46Y46*%
G04 Gerber Fmt 4.6, Leading zero omitted, Abs format (unit mm)*
G04 Created by KiCad (PCBNEW 4.0.1-3.201512140935+6195~38~ubuntu14.04.1-stable) date Tue 15 Dec 2015 05:44:10 PM CET*
%MOMM*%
G01*
G04 APERTURE LIST*
%ADD10C,0.100000*%
%ADD11C,0.150000*%
%ADD12C,0.200000*%
%ADD13C,1.450000*%
%ADD14R,0.700000X0.950000*%
%ADD15R,0.700000X0.700000*%
%ADD16R,0.500000X0.600000*%
%ADD17R,0.600000X0.500000*%
%ADD18R,0.950000X0.700000*%
%ADD19O,2.500000X1.450000*%
%ADD20O,1.450000X2.500000*%
%ADD21R,1.197560X1.197560*%
G04 APERTURE END LIST*
D10*
D11*
X114898048Y-62460953D02*
X114898048Y-62539048D01*
X114859000Y-62617143D01*
X114819952Y-62656191D01*
X114741857Y-62695238D01*
X114585667Y-62734286D01*
X114390429Y-62734286D01*
X114234238Y-62695238D01*
X114156143Y-62656191D01*
X114117095Y-62617143D01*
X114078048Y-62539048D01*
X114078048Y-62460953D01*
X114117095Y-62382857D01*
X114156143Y-62343810D01*
X114234238Y-62304762D01*
X114390429Y-62265714D01*
X114585667Y-62265714D01*
X114741857Y-62304762D01*
X114819952Y-62343810D01*
X114859000Y-62382857D01*
X114898048Y-62460953D01*
X112780048Y-62734286D02*
X112780048Y-62265714D01*
X112780048Y-62500000D02*
X113600048Y-62500000D01*
X113482905Y-62421905D01*
X113404810Y-62343810D01*
X113365762Y-62265714D01*
D12*
X116441421Y-65200000D02*
G75*
G03X116441421Y-65200000I-141421J0D01*
G01*
D11*
X108665714Y-63135048D02*
X108704762Y-63096000D01*
X108782857Y-63056952D01*
X108978095Y-63056952D01*
X109056191Y-63096000D01*
X109095238Y-63135048D01*
X109134286Y-63213143D01*
X109134286Y-63291238D01*
X109095238Y-63408381D01*
X108626667Y-63876952D01*
X109134286Y-63876952D01*
X108626667Y-64354952D02*
X109134286Y-64354952D01*
X108860953Y-64667333D01*
X108978095Y-64667333D01*
X109056191Y-64706381D01*
X109095238Y-64745429D01*
X109134286Y-64823524D01*
X109134286Y-65018762D01*
X109095238Y-65096857D01*
X109056191Y-65135905D01*
X108978095Y-65174952D01*
X108743810Y-65174952D01*
X108665714Y-65135905D01*
X108626667Y-65096857D01*
X109056191Y-65926286D02*
X109056191Y-66472952D01*
X108860953Y-65613905D02*
X108665714Y-66199619D01*
X109173334Y-66199619D01*
X109095238Y-66950952D02*
X108704762Y-66950952D01*
X108665714Y-67341429D01*
X108704762Y-67302381D01*
X108782857Y-67263333D01*
X108978095Y-67263333D01*
X109056191Y-67302381D01*
X109095238Y-67341429D01*
X109134286Y-67419524D01*
X109134286Y-67614762D01*
X109095238Y-67692857D01*
X109056191Y-67731905D01*
X108978095Y-67770952D01*
X108782857Y-67770952D01*
X108704762Y-67731905D01*
X108665714Y-67692857D01*
X109056191Y-68248952D02*
X108900000Y-68248952D01*
X108821905Y-68288000D01*
X108782857Y-68327048D01*
X108704762Y-68444190D01*
X108665714Y-68600381D01*
X108665714Y-68912762D01*
X108704762Y-68990857D01*
X108743810Y-69029905D01*
X108821905Y-69068952D01*
X108978095Y-69068952D01*
X109056191Y-69029905D01*
X109095238Y-68990857D01*
X109134286Y-68912762D01*
X109134286Y-68717524D01*
X109095238Y-68639429D01*
X109056191Y-68600381D01*
X108978095Y-68561333D01*
X108821905Y-68561333D01*
X108743810Y-68600381D01*
X108704762Y-68639429D01*
X108665714Y-68717524D01*
X108626667Y-69546952D02*
X109173334Y-69546952D01*
X108821905Y-70366952D01*
X108821905Y-71196381D02*
X108743810Y-71157333D01*
X108704762Y-71118286D01*
X108665714Y-71040190D01*
X108665714Y-71001143D01*
X108704762Y-70923048D01*
X108743810Y-70884000D01*
X108821905Y-70844952D01*
X108978095Y-70844952D01*
X109056191Y-70884000D01*
X109095238Y-70923048D01*
X109134286Y-71001143D01*
X109134286Y-71040190D01*
X109095238Y-71118286D01*
X109056191Y-71157333D01*
X108978095Y-71196381D01*
X108821905Y-71196381D01*
X108743810Y-71235429D01*
X108704762Y-71274476D01*
X108665714Y-71352571D01*
X108665714Y-71508762D01*
X108704762Y-71586857D01*
X108743810Y-71625905D01*
X108821905Y-71664952D01*
X108978095Y-71664952D01*
X109056191Y-71625905D01*
X109095238Y-71586857D01*
X109134286Y-71508762D01*
X109134286Y-71352571D01*
X109095238Y-71274476D01*
X109056191Y-71235429D01*
X108978095Y-71196381D01*
X117700000Y-63550000D02*
X115800000Y-63550000D01*
X117700000Y-64650000D02*
X115800000Y-64650000D01*
X116800000Y-64100000D02*
X116350000Y-64100000D01*
X116850000Y-64350000D02*
X116850000Y-63850000D01*
X116850000Y-64100000D02*
X116600000Y-64350000D01*
X116600000Y-64350000D02*
X116600000Y-63850000D01*
X116600000Y-63850000D02*
X116850000Y-64100000D01*
%LPC*%
D13*
X117150000Y-71150000D03*
X115880000Y-71150000D03*
X114610000Y-71150000D03*
X113340000Y-71150000D03*
D14*
X115825000Y-65825000D03*
X115325000Y-65825000D03*
X114825000Y-65825000D03*
X114325000Y-65825000D03*
X113825000Y-65825000D03*
D15*
X113325000Y-65700000D03*
D10*
G36*
X113475000Y-65550005D02*
X113475000Y-66149995D01*
X113075000Y-65950005D01*
X113075000Y-65749995D01*
X113475000Y-65550005D01*
X113475000Y-65550005D01*
G37*
D16*
X113425000Y-65950000D03*
D15*
X112825000Y-69200000D03*
D17*
X113075000Y-69100000D03*
D10*
G36*
X112675005Y-69050000D02*
X113274995Y-69050000D01*
X113075005Y-69450000D01*
X112874995Y-69450000D01*
X112675005Y-69050000D01*
X112675005Y-69050000D01*
G37*
D17*
X113075000Y-66300000D03*
D10*
G36*
X113274995Y-66350000D02*
X112675005Y-66350000D01*
X112874995Y-65950000D01*
X113075005Y-65950000D01*
X113274995Y-66350000D01*
X113274995Y-66350000D01*
G37*
D15*
X112825000Y-66200000D03*
D18*
X112950000Y-66700000D03*
X112950000Y-67200000D03*
X112950000Y-67700000D03*
X112950000Y-68200000D03*
X112950000Y-68700000D03*
D10*
G36*
X116175000Y-66149995D02*
X116175000Y-65550005D01*
X116575000Y-65749995D01*
X116575000Y-65950005D01*
X116175000Y-66149995D01*
X116175000Y-66149995D01*
G37*
D15*
X116325000Y-65700000D03*
D16*
X116225000Y-65950000D03*
D15*
X116325000Y-69700000D03*
D10*
G36*
X116175000Y-69849995D02*
X116175000Y-69250005D01*
X116575000Y-69449995D01*
X116575000Y-69650005D01*
X116175000Y-69849995D01*
X116175000Y-69849995D01*
G37*
D16*
X116225000Y-69450000D03*
D10*
G36*
X113475000Y-69250005D02*
X113475000Y-69849995D01*
X113075000Y-69650005D01*
X113075000Y-69449995D01*
X113475000Y-69250005D01*
X113475000Y-69250005D01*
G37*
D16*
X113425000Y-69450000D03*
D15*
X113325000Y-69700000D03*
D17*
X116575000Y-66300000D03*
D10*
G36*
X116974995Y-66350000D02*
X116375005Y-66350000D01*
X116574995Y-65950000D01*
X116775005Y-65950000D01*
X116974995Y-66350000D01*
X116974995Y-66350000D01*
G37*
D15*
X116825000Y-66200000D03*
X116825000Y-69200000D03*
D17*
X116575000Y-69100000D03*
D10*
G36*
X116375005Y-69050000D02*
X116974995Y-69050000D01*
X116775005Y-69450000D01*
X116574995Y-69450000D01*
X116375005Y-69050000D01*
X116375005Y-69050000D01*
G37*
D14*
X113825000Y-69575000D03*
X114325000Y-69575000D03*
X114825000Y-69575000D03*
X115325000Y-69575000D03*
X115825000Y-69575000D03*
D18*
X116700000Y-68700000D03*
X116700000Y-68200000D03*
X116700000Y-67700000D03*
X116700000Y-67200000D03*
X116700000Y-66700000D03*
D19*
X110800000Y-63580000D03*
X110800000Y-64850000D03*
X110800000Y-66120000D03*
X110800000Y-67390000D03*
X110800000Y-68660000D03*
X110800000Y-69930000D03*
X110800000Y-71200000D03*
D13*
X118200000Y-67030000D03*
X118200000Y-68300000D03*
X118200000Y-69570000D03*
D20*
X113100000Y-64100000D03*
X114400000Y-64100000D03*
D21*
X115850700Y-64100000D03*
X117349300Y-64100000D03*
M02*
