G04 #@! TF.FileFunction,Copper,L2,Bot,Signal*
%FSLAX46Y46*%
G04 Gerber Fmt 4.6, Leading zero omitted, Abs format (unit mm)*
G04 Created by KiCad (PCBNEW 4.0.1-3.201512140935+6195~38~ubuntu14.04.1-stable) date Tue 15 Dec 2015 05:44:10 PM CET*
%MOMM*%
G01*
G04 APERTURE LIST*
%ADD10C,0.100000*%
%ADD11R,0.800000X0.750000*%
%ADD12C,1.050000*%
%ADD13O,2.100000X1.050000*%
%ADD14O,1.050000X2.100000*%
%ADD15R,0.900000X0.500000*%
%ADD16C,0.600000*%
%ADD17C,0.250000*%
G04 APERTURE END LIST*
D10*
D11*
X114650000Y-69600000D03*
X113150000Y-69600000D03*
D12*
X117150000Y-71150000D03*
X115880000Y-71150000D03*
X114610000Y-71150000D03*
X113340000Y-71150000D03*
D13*
X110800000Y-63580000D03*
X110800000Y-64850000D03*
X110800000Y-66120000D03*
X110800000Y-67390000D03*
X110800000Y-68660000D03*
X110800000Y-69930000D03*
X110800000Y-71200000D03*
D12*
X118200000Y-67030000D03*
X118200000Y-68300000D03*
X118200000Y-69570000D03*
D14*
X113100000Y-64100000D03*
X114400000Y-64100000D03*
D15*
X116400000Y-67550000D03*
X116400000Y-69050000D03*
D16*
X115510623Y-65051268D03*
D17*
X114650000Y-69600000D02*
X115850000Y-69600000D01*
X115850000Y-69600000D02*
X116400000Y-69050000D01*
X114650000Y-69600000D02*
X114650000Y-71110000D01*
X114650000Y-71110000D02*
X114610000Y-71150000D01*
X118200000Y-68300000D02*
X113825000Y-68300000D01*
X113825000Y-68300000D02*
X113150000Y-68975000D01*
X113150000Y-68975000D02*
X113150000Y-69600000D01*
X113150000Y-69600000D02*
X113150000Y-70960000D01*
X113150000Y-70960000D02*
X113340000Y-71150000D01*
X115510623Y-65051268D02*
X116400000Y-65940645D01*
X116400000Y-65940645D02*
X116400000Y-67550000D01*
M02*
