G04 #@! TF.FileFunction,Copper,L1,Top,Signal*
%FSLAX46Y46*%
G04 Gerber Fmt 4.6, Leading zero omitted, Abs format (unit mm)*
G04 Created by KiCad (PCBNEW 4.0.1-3.201512140935+6195~38~ubuntu14.04.1-stable) date Tue 15 Dec 2015 05:44:10 PM CET*
%MOMM*%
G01*
G04 APERTURE LIST*
%ADD10C,0.100000*%
%ADD11C,1.050000*%
%ADD12R,0.300000X0.550000*%
%ADD13R,0.300000X0.300000*%
%ADD14R,0.100000X0.200000*%
%ADD15R,0.200000X0.100000*%
%ADD16R,0.550000X0.300000*%
%ADD17O,2.100000X1.050000*%
%ADD18O,1.050000X2.100000*%
%ADD19R,0.797560X0.797560*%
%ADD20C,0.600000*%
%ADD21C,0.250000*%
%ADD22C,0.010000*%
G04 APERTURE END LIST*
D10*
D11*
X117150000Y-71150000D03*
X115880000Y-71150000D03*
X114610000Y-71150000D03*
X113340000Y-71150000D03*
D12*
X115825000Y-65825000D03*
X115325000Y-65825000D03*
X114825000Y-65825000D03*
X114325000Y-65825000D03*
X113825000Y-65825000D03*
D13*
X113325000Y-65700000D03*
D10*
G36*
X113375000Y-65650005D02*
X113375000Y-66049995D01*
X113175000Y-65850005D01*
X113175000Y-65849995D01*
X113375000Y-65650005D01*
X113375000Y-65650005D01*
G37*
D14*
X113425000Y-65950000D03*
D13*
X112825000Y-69200000D03*
D15*
X113075000Y-69100000D03*
D10*
G36*
X112775005Y-69150000D02*
X113174995Y-69150000D01*
X112975005Y-69350000D01*
X112974995Y-69350000D01*
X112775005Y-69150000D01*
X112775005Y-69150000D01*
G37*
D15*
X113075000Y-66300000D03*
D10*
G36*
X113174995Y-66250000D02*
X112775005Y-66250000D01*
X112974995Y-66050000D01*
X112975005Y-66050000D01*
X113174995Y-66250000D01*
X113174995Y-66250000D01*
G37*
D13*
X112825000Y-66200000D03*
D16*
X112950000Y-66700000D03*
X112950000Y-67200000D03*
X112950000Y-67700000D03*
X112950000Y-68200000D03*
X112950000Y-68700000D03*
D10*
G36*
X116275000Y-66049995D02*
X116275000Y-65650005D01*
X116475000Y-65849995D01*
X116475000Y-65850005D01*
X116275000Y-66049995D01*
X116275000Y-66049995D01*
G37*
D13*
X116325000Y-65700000D03*
D14*
X116225000Y-65950000D03*
D13*
X116325000Y-69700000D03*
D10*
G36*
X116275000Y-69749995D02*
X116275000Y-69350005D01*
X116475000Y-69549995D01*
X116475000Y-69550005D01*
X116275000Y-69749995D01*
X116275000Y-69749995D01*
G37*
D14*
X116225000Y-69450000D03*
D10*
G36*
X113375000Y-69350005D02*
X113375000Y-69749995D01*
X113175000Y-69550005D01*
X113175000Y-69549995D01*
X113375000Y-69350005D01*
X113375000Y-69350005D01*
G37*
D14*
X113425000Y-69450000D03*
D13*
X113325000Y-69700000D03*
D15*
X116575000Y-66300000D03*
D10*
G36*
X116874995Y-66250000D02*
X116475005Y-66250000D01*
X116674995Y-66050000D01*
X116675005Y-66050000D01*
X116874995Y-66250000D01*
X116874995Y-66250000D01*
G37*
D13*
X116825000Y-66200000D03*
X116825000Y-69200000D03*
D15*
X116575000Y-69100000D03*
D10*
G36*
X116475005Y-69150000D02*
X116874995Y-69150000D01*
X116675005Y-69350000D01*
X116674995Y-69350000D01*
X116475005Y-69150000D01*
X116475005Y-69150000D01*
G37*
D12*
X113825000Y-69575000D03*
X114325000Y-69575000D03*
X114825000Y-69575000D03*
X115325000Y-69575000D03*
X115825000Y-69575000D03*
D16*
X116700000Y-68700000D03*
X116700000Y-68200000D03*
X116700000Y-67700000D03*
X116700000Y-67200000D03*
X116700000Y-66700000D03*
D17*
X110800000Y-63580000D03*
X110800000Y-64850000D03*
X110800000Y-66120000D03*
X110800000Y-67390000D03*
X110800000Y-68660000D03*
X110800000Y-69930000D03*
X110800000Y-71200000D03*
D11*
X118200000Y-67030000D03*
X118200000Y-68300000D03*
X118200000Y-69570000D03*
D18*
X113100000Y-64100000D03*
X114400000Y-64100000D03*
D19*
X115850700Y-64100000D03*
X117349300Y-64100000D03*
D20*
X115510623Y-65051268D03*
D21*
X114825000Y-69575000D02*
X114825000Y-70935000D01*
X114825000Y-70935000D02*
X114610000Y-71150000D01*
X114325000Y-69575000D02*
X114325000Y-70865000D01*
X114325000Y-70865000D02*
X114610000Y-71150000D01*
X113825000Y-69575000D02*
X113825000Y-70665000D01*
X113825000Y-70665000D02*
X113340000Y-71150000D01*
X112950000Y-67700000D02*
X111110000Y-67700000D01*
X111110000Y-67700000D02*
X110800000Y-67390000D01*
X111257095Y-66120000D02*
X110800000Y-66120000D01*
X112950000Y-67200000D02*
X112337095Y-67200000D01*
X112337095Y-67200000D02*
X111257095Y-66120000D01*
X112950000Y-68200000D02*
X111717095Y-68200000D01*
X111717095Y-68200000D02*
X111257095Y-68660000D01*
X111257095Y-68660000D02*
X110800000Y-68660000D01*
D22*
X113275000Y-65850000D02*
X113275000Y-65860000D01*
X113275000Y-65860000D02*
X113365000Y-65950000D01*
X113365000Y-65950000D02*
X113425000Y-65950000D01*
X113325000Y-65700000D02*
X113325000Y-65800000D01*
X113325000Y-65800000D02*
X113275000Y-65850000D01*
D21*
X113325000Y-65700000D02*
X113325000Y-64325000D01*
X113325000Y-64325000D02*
X113100000Y-64100000D01*
X112175010Y-66401505D02*
X112175010Y-65767915D01*
X112473505Y-66700000D02*
X112175010Y-66401505D01*
X112950000Y-66700000D02*
X112473505Y-66700000D01*
X112175010Y-65767915D02*
X111257095Y-64850000D01*
X111257095Y-64850000D02*
X110800000Y-64850000D01*
X112950000Y-68700000D02*
X112555000Y-68700000D01*
X112555000Y-68700000D02*
X111325000Y-69930000D01*
X111325000Y-69930000D02*
X110800000Y-69930000D01*
X113825000Y-65825000D02*
X113825000Y-65300000D01*
X113825000Y-65300000D02*
X114400000Y-64725000D01*
X114400000Y-64725000D02*
X114400000Y-64100000D01*
D22*
X112825000Y-66200000D02*
X112925000Y-66200000D01*
X112925000Y-66200000D02*
X112975000Y-66150000D01*
X113075000Y-66300000D02*
X113075000Y-66240000D01*
X113075000Y-66240000D02*
X112985000Y-66150000D01*
X112985000Y-66150000D02*
X112975000Y-66150000D01*
D21*
X112825000Y-66200000D02*
X112825000Y-65552095D01*
X112175010Y-64430010D02*
X111325000Y-63580000D01*
X112825000Y-65552095D02*
X112175010Y-64902105D01*
X112175010Y-64902105D02*
X112175010Y-64430010D01*
X111325000Y-63580000D02*
X110800000Y-63580000D01*
D22*
X113075000Y-69100000D02*
X113075000Y-69160000D01*
X113075000Y-69160000D02*
X112985000Y-69250000D01*
X112985000Y-69250000D02*
X112975000Y-69250000D01*
D21*
X112825000Y-69200000D02*
X112825000Y-69700000D01*
X112825000Y-69700000D02*
X111325000Y-71200000D01*
X111325000Y-71200000D02*
X110800000Y-71200000D01*
D22*
X116575000Y-69100000D02*
X116575000Y-69160000D01*
X116665000Y-69250000D02*
X116675000Y-69250000D01*
X116575000Y-69160000D02*
X116665000Y-69250000D01*
D21*
X118200000Y-67030000D02*
X117325000Y-67905000D01*
X117325000Y-67905000D02*
X117325000Y-69100000D01*
X117325000Y-69100000D02*
X117225000Y-69200000D01*
X117225000Y-69200000D02*
X116825000Y-69200000D01*
D22*
X116225000Y-69450000D02*
X116285000Y-69450000D01*
X116285000Y-69450000D02*
X116325000Y-69490000D01*
X116325000Y-69490000D02*
X116325000Y-69540000D01*
X116325000Y-69540000D02*
X116325000Y-69700000D01*
D21*
X118200000Y-69570000D02*
X118070000Y-69700000D01*
X118070000Y-69700000D02*
X116325000Y-69700000D01*
X117150000Y-71150000D02*
X116299999Y-70299999D01*
X116299999Y-70299999D02*
X116024999Y-70299999D01*
X116024999Y-70299999D02*
X115825000Y-70100000D01*
X115825000Y-70100000D02*
X115825000Y-69575000D01*
X115880000Y-71150000D02*
X115325000Y-70595000D01*
X115325000Y-70595000D02*
X115325000Y-69575000D01*
D22*
X116325000Y-65700000D02*
X116325000Y-65860000D01*
X116325000Y-65860000D02*
X116235000Y-65950000D01*
X116235000Y-65950000D02*
X116225000Y-65950000D01*
X113425000Y-69450000D02*
X113365000Y-69450000D01*
X113365000Y-69450000D02*
X113275000Y-69540000D01*
X113275000Y-69540000D02*
X113275000Y-69550000D01*
D21*
X115850700Y-64100000D02*
X115850700Y-64711191D01*
X115850700Y-64711191D02*
X115510623Y-65051268D01*
D22*
X116575000Y-66300000D02*
X116575000Y-66240000D01*
X116575000Y-66240000D02*
X116665000Y-66150000D01*
X116665000Y-66150000D02*
X116675000Y-66150000D01*
D21*
X117349300Y-64100000D02*
X117349300Y-66075700D01*
X117349300Y-66075700D02*
X117225000Y-66200000D01*
X117225000Y-66200000D02*
X116825000Y-66200000D01*
M02*
